[center][size=5][b]Sucker Punch 2011 Dual Audio(ENG-HINDI) 720p 5.1~{PHDR}~[/b][/size]

[IMG]http://img64.imageshack.us/img64/1373/suckerpunchbluraycover1.jpg[/IMG]


[img]http://img16.imageshack.us/img16/5184/cooltext522897865.png[/img]
[img]http://img13.imageshack.us/img13/6687/cooltext522900888.png[/img]

[img]http://img847.imageshack.us/img847/3343/25ic0hd1.png[/img]

A young girl is institutionalized by her abusive stepfather. Retreating to an alternative reality as a coping strategy, she envisions a plan which will help her escape from the mental facility.

Emily Browning - BABY DOLL
Abbie Cornish - SWEET PEA
Jena Malone - ROCKET
Vanessa Hudgens - Blondie
Jamie Chung - AMBER
Carla Gugino - DR.VERA GORSKI
Oscar Isaac - BLUE JONES
Jon Hamm - HIGH ROLLER / DOCTER
Scott Glenn - WISE MAN
Richard Cetrone - CJ
Gerard Plunkett - STEPFATHER


[img]http://img21.imageshack.us/img21/4868/zvbzx21.png[/img]

General
Complete name                    : Sucker Punch 2011 Dual Audio (ENG-HINDI) 720p 5.1~{PHDR}~
Format                           : Matroska
File size                        : 1.97 GiB
Duration                         : 1h 49mn
Overall bit rate                 : 2 572 Kbps

Video
ID                               : 1
Format                           : AVC
Format/Info                      : Advanced Video Codec
Format profile                   : High@L5.1
Format settings, CABAC           : Yes
Format settings, ReFrames        : 5 frames
Duration                         : 1h 49mn
Bit rate                         : 1 849 Kbps
Nominal bit rate                 : 1 900 Kbps
Width                            : 1 280 pixels
Height                           : 528 pixels
Display aspect ratio             : 2.40:1
Frame rate                       : 23.976 fps
Resolution                       : 24 bits
Colorimetry                      : 4:2:0
Scan type                        : Progressive
Bits/(Pixel*Frame)               : 0.114
Stream size                      : 1.42 GiB (72%)


Audio #1
ID                               : 2
Format                           : AC-3
Duration                         : 1h 49mn
Bit rate mode                    : Constant
Bit rate                         : 448 Kbps
Channel(s)                       : 6 channels
Channel positions                : Front: L C R, Surround: L R, LFE
Sampling rate                    : 48.0 KHz
Stream size                      : 352 MiB (17%)
Title                            : PHDR(ENGLISH)(5.1)

Audio #2
ID                               : 3
Format                           : MPEG Audio
Codec ID/Hint                    : MP3
Duration                         : 1h 49mn
Bit rate mode                    : Constant
Bit rate                         : 224 Kbps
Channel(s)                       : 2 channels
Sampling rate                    : 48.0 KHz
Resolution                       : 16 bits
Video delay                      : 3s 900ms
Stream size                      : 176 MiB (9%)
Title                            : PHDR(HINDI)
Writing library                  : LAME3.98.2




[img=SCREENS]http://www.pix2links.com/images/48140134537041581883.gif[/img]

[IMG]http://img59.imageshack.us/img59/6156/suckerpunch6.png[/IMG]
[IMG]http://img853.imageshack.us/img853/9018/suckerpunch5.png[/IMG]
[IMG]http://img840.imageshack.us/img840/7944/suckerpunch4.png[/IMG]
[IMG]http://img405.imageshack.us/img405/6729/suckerpunch3.png[/IMG]
[IMG]http://img41.imageshack.us/img41/2460/suckerpunch2.png[/IMG]
[IMG]http://img17.imageshack.us/img17/2359/suckerpunch1.png[/IMG]

[IMG]http://img405.imageshack.us/img405/2411/imageaxdue.jpg[/IMG]
[IMG]http://img684.imageshack.us/img684/6688/facebookcn.png[/IMG]

[img]http://img20.imageshack.us/img20/6974/cooltext524812482.png[/img][/center]